<svg width="36" height="36" viewBox="0 0 36 36" fill="none" xmlns="http://www.w3.org/2000/svg">
  <path d="M18 0C8.06 0 0 8.06 0 18C0 27.94 8.06 36 18 36C27.94 36 36 27.94 36 18C36 8.06 27.94 0 18 0ZM18 32C10.28 32 4 25.72 4 18C4 10.28 10.28 4 18 4C25.72 4 32 10.28 32 18C32 25.72 25.72 32 18 32Z" fill="#3AB59E"/>
  <path d="M18 10C13.58 10 10 13.58 10 18C10 22.42 13.58 26 18 26C22.42 26 26 22.42 26 18C26 13.58 22.42 10 18 10ZM18 22C15.79 22 14 20.21 14 18C14 15.79 15.79 14 18 14C20.21 14 22 15.79 22 18C22 20.21 20.21 22 18 22Z" fill="#3AB59E"/>
</svg>
